<svg xmlns="http://www.w3.org/2000/svg" xmlns:xlink="http://www.w3.org/1999/xlink" width="16" height="16" viewBox="0 0 16 16">
    <defs>
        <path id="a" d="M12 12H4V4h2a1 1 0 1 0 0-2H4a2 2 0 0 0-2 2v8a2 2 0 0 0 2 2h8c1.1 0 2-.9 2-2v-2a1 1 0 0 0-2 0v2zM8.142 2.976c0 .54.437.977.977.977h1.552L7.285 7.338a.973.973 0 1 0 1.377 1.377l3.385-3.386v1.552a.976.976 0 1 0 1.953 0V3a1 1 0 0 0-1-1H9.119a.976.976 0 0 0-.977.976z"/>
    </defs>
    <g fill="none" fill-rule="evenodd">
        <mask id="b" fill="#fff">
            <use xlink:href="#a"/>
        </mask>
        <use fill="#FFF" xlink:href="#a"/>
        <g fill="#2466ea" mask="url(#b)">
            <path d="M0 0h16v16H0z"/>
        </g>
    </g>
</svg>
