<svg xmlns="http://www.w3.org/2000/svg" xmlns:xlink="http://www.w3.org/1999/xlink" width="24" height="24" viewBox="0 0 24 24">
    <defs>
        <path id="a" d="M19.64 12.98c.042-.32.073-.64.073-.98 0-.34-.031-.66-.072-.98l2.169-1.65a.495.495 0 0 0 .123-.64l-2.056-3.46a.516.516 0 0 0-.452-.25.492.492 0 0 0-.175.03l-2.56 1c-.534-.4-1.11-.73-1.737-.98l-.39-2.65a.497.497 0 0 0-.505-.42H9.946a.497.497 0 0 0-.504.42l-.39 2.65c-.627.25-1.203.59-1.738.98l-2.56-1a.597.597 0 0 0-.185-.03c-.174 0-.35.09-.442.25L2.071 8.73a.484.484 0 0 0 .124.64l2.169 1.65c-.041.32-.072.65-.072.98 0 .33.03.66.072.98l-2.17 1.65a.495.495 0 0 0-.123.64l2.056 3.46c.093.16.268.25.453.25.061 0 .123-.01.174-.03l2.56-1c.535.4 1.11.73 1.738.98l.39 2.65c.031.24.247.42.504.42h4.112c.257 0 .473-.18.504-.42l.39-2.65a7.955 7.955 0 0 0 1.738-.98l2.56 1c.062.02.123.03.185.03.175 0 .35-.09.442-.25l2.056-3.46a.495.495 0 0 0-.123-.64l-2.17-1.65zm-2.035-1.71c.041.31.052.52.052.73 0 .21-.021.43-.052.73l-.144 1.13.915.7 1.11.84-.72 1.21-1.305-.51-1.069-.42-.925.68c-.442.32-.864.56-1.285.73l-1.09.43-.164 1.13-.206 1.35h-1.44l-.195-1.35-.164-1.13-1.09-.43a5.876 5.876 0 0 1-1.264-.71l-.936-.7-1.09.43-1.305.51-.72-1.21 1.11-.84.915-.7-.144-1.13c-.03-.31-.051-.54-.051-.74 0-.2.02-.43.051-.73l.144-1.13-.915-.7-1.11-.84.72-1.21 1.305.51 1.07.42.925-.68c.442-.32.863-.56 1.285-.73l1.09-.43.164-1.13.206-1.35h1.429l.195 1.35.164 1.13 1.09.43c.442.18.853.41 1.265.71l.935.7 1.09-.43 1.306-.51.72 1.21-1.1.85-.916.7.144 1.13zM12.002 8C9.73 8 7.89 9.79 7.89 12s1.84 4 4.112 4c2.272 0 4.112-1.79 4.112-4s-1.84-4-4.112-4zm0 6c-1.13 0-2.056-.9-2.056-2s.925-2 2.056-2 2.056.9 2.056 2-.925 2-2.056 2z"/>
    </defs>
    <g fill="none" fill-rule="evenodd">
        <mask id="b" fill="#fff">
            <use xlink:href="#a"/>
        </mask>
        <use fill="#000" fill-rule="nonzero" xlink:href="#a"/>
        <g fill="#091E42" mask="url(#b)">
            <path d="M0 0h24v24H0z"/>
        </g>
    </g>
</svg>
